<?xml version="1.0" standalone="no"?>
<!DOCTYPE svg PUBLIC "-//W3C//DTD SVG 20010904//EN"
 "http://www.w3.org/TR/2001/REC-SVG-20010904/DTD/svg10.dtd">
<svg version="1.0" xmlns="http://www.w3.org/2000/svg"
 width="512.000000pt" height="512.000000pt" viewBox="0 0 512.000000 512.000000"
 preserveAspectRatio="xMidYMid meet">

<g transform="translate(0.000000,512.000000) scale(0.100000,-0.100000)"
fill="#e54f0d" stroke="none">
<path d="M2430 5113 c-696 -52 -1305 -463 -1619 -1091 -147 -294 -219 -667
-191 -997 29 -352 134 -656 323 -940 68 -101 1494 -2019 1519 -2042 12 -12 44
-27 70 -34 43 -12 50 -11 92 12 42 22 119 123 800 1042 415 560 780 1060 811
1112 219 367 313 810 260 1222 -37 282 -123 536 -258 763 -196 329 -504 610
-843 769 -303 144 -643 208 -964 184z m345 -918 c400 -83 722 -405 811 -810
23 -109 23 -321 0 -430 -63 -290 -245 -541 -499 -688 -178 -103 -326 -141
-547 -141 -124 0 -159 4 -241 26 -406 110 -702 432 -774 842 -98 567 288 1110
863 1212 95 17 277 11 387 -11z"/>
</g>
</svg>
